<?xml version="1.0" encoding="utf-8"?>
<!-- Generator: Adobe Illustrator 25.4.1, SVG Export Plug-In . SVG Version: 6.00 Build 0)  -->
<svg version="1.1" id="Layer_1" xmlns="http://www.w3.org/2000/svg" xmlns:xlink="http://www.w3.org/1999/xlink" x="0px" y="0px"
	 viewBox="0 0 940 940" enable-background="new 0 0 940 940" xml:space="preserve">
<g>
	<rect width="940" height="940" fill="#EAEAEA" />

	<line clip-path="url(#SVGID_00000033329595203451718380000017755312217940842385_)" fill="none" stroke="#C1BFC0" stroke-width="5.0742" stroke-miterlimit="10" x1="0" y1="45.5" x2="940" y2="45.5"/>

	<line clip-path="url(#SVGID_00000033329595203451718380000017755312217940842385_)" fill="none" stroke="#C1BFC0" stroke-width="5.0742" stroke-miterlimit="10" x1="0" y1="217.2" x2="940" y2="217.2"/>

	<line clip-path="url(#SVGID_00000033329595203451718380000017755312217940842385_)" fill="none" stroke="#C1BFC0" stroke-width="5.0742" stroke-miterlimit="10" x1="0" y1="303" x2="940" y2="303"/>

	<line clip-path="url(#SVGID_00000033329595203451718380000017755312217940842385_)" fill="none" stroke="#C1BFC0" stroke-width="5.0742" stroke-miterlimit="10" x1="0" y1="388.8" x2="940" y2="388.8"/>

	<line clip-path="url(#SVGID_00000033329595203451718380000017755312217940842385_)" fill="none" stroke="#C1BFC0" stroke-width="5.0742" stroke-miterlimit="10" x1="0" y1="474.7" x2="940" y2="474.7"/>

	<line clip-path="url(#SVGID_00000033329595203451718380000017755312217940842385_)" fill="none" stroke="#C1BFC0" stroke-width="5.0742" stroke-miterlimit="10" x1="0" y1="560.5" x2="940" y2="560.5"/>

	<line clip-path="url(#SVGID_00000033329595203451718380000017755312217940842385_)" fill="none" stroke="#C1BFC0" stroke-width="5.0742" stroke-miterlimit="10" x1="0" y1="646.3" x2="940" y2="646.3"/>

	<line clip-path="url(#SVGID_00000033329595203451718380000017755312217940842385_)" fill="none" stroke="#C1BFC0" stroke-width="5.0742" stroke-miterlimit="10" x1="0" y1="732.1" x2="940" y2="732.1"/>

	<line clip-path="url(#SVGID_00000033329595203451718380000017755312217940842385_)" fill="none" stroke="#C1BFC0" stroke-width="5.0742" stroke-miterlimit="10" x1="0" y1="818" x2="940" y2="818"/>

	<line clip-path="url(#SVGID_00000033329595203451718380000017755312217940842385_)" fill="none" stroke="#C1BFC0" stroke-width="5.0742" stroke-miterlimit="10" x1="0" y1="131.4" x2="940" y2="131.4"/>

	<line clip-path="url(#SVGID_00000033329595203451718380000017755312217940842385_)" fill="none" stroke="#C1BFC0" stroke-width="5.0742" stroke-miterlimit="10" x1="0" y1="903.8" x2="940" y2="903.8"/>
</g>
<g transform="translate(38 38)" >
	<defs>
		<path id="SVGID_00000083771111084971998360000005738614991766461341_" d="M628.6,143.8c-12.7,28.3-38.2,84.8-53.2,116.8v326.6
			c0,9.3-10.8,14.3-17.9,8.4l-112.2-93.1c-25.8-21.4-64.7-19.6-86.6,5.8c-22.3,25.9-18.9,64.9,7.3,86.6l138.2,114.6l0,0
			c10.9,9,23.2,16,36,20.5c12.8,4.5,26,6.7,38.9,6.7c15.3,0,30.2-3,44-8.5c20.6-8.3,39-22.2,52.5-41.1c6.8-9.5,12.2-20.2,16-31.7
			c3.7-11.6,5.7-24,5.7-36.6V260.6c-11.4-25.1-39.4-86.7-53.1-116.8c-1.5-3.3-4.6-5-7.7-5C633.2,138.8,630.1,140.5,628.6,143.8"/>
	</defs>
	<clipPath id="SVGID_00000127033681777961034130000001731144962221141180_">
		<use xlink:href="#SVGID_00000083771111084971998360000005738614991766461341_"  overflow="visible"/>
	</clipPath>

		<rect x="286.3" y="47.4" clip-path="url(#SVGID_00000127033681777961034130000001731144962221141180_)" fill="#009444" width="591.7" height="774.1"/>
	<path clip-path="url(#SVGID_00000127033681777961034130000001731144962221141180_)" fill="#414042" d="M687.3,138.8
		c0,27.8-22.5,50.2-50.2,50.2c-27.8,0-50.2-22.5-50.2-50.2c0-27.8,22.5-50.2,50.2-50.2C664.8,88.5,687.3,111,687.3,138.8"/>
	<path clip-path="url(#SVGID_00000127033681777961034130000001731144962221141180_)" fill="#037C3F" d="M277.3,468.7l264.1,218.9
		c45.8,38,115.1,5.4,115.1-54.1V234.9l40.6,25.7L722,837.3L360.2,691.6L277.3,468.7z"/>
	<path clip-path="url(#SVGID_00000127033681777961034130000001731144962221141180_)" fill="#39B54A" d="M306.7,440.4l251,208.1
		c23.2,19.2,58.2,2.7,58.2-27.3l0.1-386.2l-40.6,25.7L306.7,440.4z"/>
</g>
<g transform="translate(38 38)" >
	<path fill="#196599" d="M285.5,126.7c-15.3,0-30.2,3-44,8.5c-20.6,8.3-39,22.2-52.5,41.1c-6.7,9.5-12.2,20.2-16,31.7
		c-3.7,11.6-5.7,24-5.7,36.6v358.3c11.4,25.1,39.4,86.7,53.1,116.8c3,6.7,12.5,6.7,15.5,0c12.7-28.3,38.2-84.8,53.2-116.8V276.3
		c0-9.3,10.8-14.3,17.9-8.4l112.2,93.1c25.8,21.4,64.7,19.6,86.6-5.8c22.3-25.9,18.9-64.9-7.3-86.6L360.4,153.9l0,0
		c-10.9-9-23.2-16-36-20.5C311.6,128.8,298.4,126.7,285.5,126.7C285.5,126.7,285.5,126.7,285.5,126.7"/>
	<defs>
		<path id="SVGID_00000101818430653878270590000003783577569664639672_" d="M285.5,126.7c-15.3,0-30.2,3-44,8.5
			c-20.6,8.3-39,22.2-52.5,41.1c-6.7,9.5-12.2,20.2-16,31.7c-3.7,11.6-5.7,24-5.7,36.6v358.3c11.4,25.1,39.4,86.7,53.1,116.8
			c3,6.7,12.5,6.7,15.5,0c12.7-28.3,38.2-84.8,53.2-116.8V276.3c0-9.3,10.8-14.3,17.9-8.4l112.2,93.1c25.8,21.4,64.7,19.6,86.6-5.8
			c22.3-25.9,18.9-64.9-7.3-86.6L360.4,153.9l0,0c-10.9-9-23.2-16-36-20.5C311.6,128.8,298.4,126.7,285.5,126.7
			C285.5,126.7,285.5,126.7,285.5,126.7"/>
	</defs>
	<clipPath id="SVGID_00000145046466663669007650000008029689411912402322_">
		<use xlink:href="#SVGID_00000101818430653878270590000003783577569664639672_"  overflow="visible"/>
	</clipPath>
	<path clip-path="url(#SVGID_00000145046466663669007650000008029689411912402322_)" fill="#414042" d="M277.9,724.7
		c0,27.8-22.5,50.2-50.2,50.2c-27.8,0-50.2-22.5-50.2-50.2c0-27.8,22.5-50.2,50.2-50.2C255.4,674.4,277.9,696.9,277.9,724.7"/>
	<path clip-path="url(#SVGID_00000145046466663669007650000008029689411912402322_)" fill="#2281AA" d="M587.2,394.8L323.1,175.8
		c-45.8-38-115.1-5.4-115.1,54.1v398.7l-40.6-25.7L142.5,26.2l361.7,145.7L587.2,394.8z"/>
	<path clip-path="url(#SVGID_00000145046466663669007650000008029689411912402322_)" fill="#155477" d="M557.8,423.1l-251-208.1
		c-23.2-19.2-58.2-2.7-58.2,27.3l-0.1,386.2l40.6-25.7L557.8,423.1z"/>
</g>
</svg>
