<?xml version="1.0" encoding="utf-8"?>
<!-- Generator: Adobe Illustrator 25.4.1, SVG Export Plug-In . SVG Version: 6.00 Build 0)  -->
<svg version="1.1" id="Layer_1" xmlns="http://www.w3.org/2000/svg" xmlns:xlink="http://www.w3.org/1999/xlink" x="0px" y="0px"
	 viewBox="0 0 176 191.8" enable-background="new 0 0 176 191.8" xml:space="preserve">
<g>
	<g>
		<defs>
			<path id="SVGID_1_" d="M112.5,128.2l-22.1-18.3c-5.1-4.2-12.7-3.9-17.1,1.2s-3.7,12.8,1.4,17.1l27.2,22.6l0,0
				c2.1,1.8,4.6,3.1,7.1,4s5.1,1.3,7.7,1.3c3,0,6-0.6,8.7-1.7c4.1-1.6,7.7-4.4,10.3-8.1c1.3-1.9,2.4-4,3.1-6.3
				c0.7-2.3,1.1-4.7,1.1-7.2V62.2c-2.2-4.9-7.8-17.1-10.5-23c-0.6-1.3-2.5-1.3-3.1,0c-2.5,5.6-7.5,16.7-10.5,23v64.4
				C116,128.4,113.9,129.4,112.5,128.2z"/>
		</defs>
		<clipPath id="SVGID_00000150783497863235289660000006136402107890426505_">
			<use xlink:href="#SVGID_1_"  overflow="visible"/>
		</clipPath>

			<rect x="59.1" y="20.1" clip-path="url(#SVGID_00000150783497863235289660000006136402107890426505_)" fill="#6D6E71" width="116.6" height="152.6"/>
	</g>
	<g>
		<defs>
			<path id="SVGID_00000018926257894473952250000015235044938168791482_" d="M112.5,128.2l-22.1-18.3c-5.1-4.2-12.7-3.9-17.1,1.2
				s-3.7,12.8,1.4,17.1l27.2,22.6l0,0c2.1,1.8,4.6,3.1,7.1,4s5.1,1.3,7.7,1.3c3,0,6-0.6,8.7-1.7c4.1-1.6,7.7-4.4,10.3-8.1
				c1.3-1.9,2.4-4,3.1-6.3c0.7-2.3,1.1-4.7,1.1-7.2V62.2c-2.2-4.9-7.8-17.1-10.5-23c-0.6-1.3-2.5-1.3-3.1,0
				c-2.5,5.6-7.5,16.7-10.5,23v64.4C116,128.4,113.9,129.4,112.5,128.2z"/>
		</defs>
		<clipPath id="SVGID_00000091007861163594999600000004496975270511172508_">
			<use xlink:href="#SVGID_00000018926257894473952250000015235044938168791482_"  overflow="visible"/>
		</clipPath>

			<circle clip-path="url(#SVGID_00000091007861163594999600000004496975270511172508_)" fill="#414042" cx="128.2" cy="38.2" r="9.9"/>
	</g>
	<g>
		<defs>
			<path id="SVGID_00000130642671198355876690000006523524426757353635_" d="M112.5,128.2l-22.1-18.3c-5.1-4.2-12.7-3.9-17.1,1.2
				s-3.7,12.8,1.4,17.1l27.2,22.6l0,0c2.1,1.8,4.6,3.1,7.1,4s5.1,1.3,7.7,1.3c3,0,6-0.6,8.7-1.7c4.1-1.6,7.7-4.4,10.3-8.1
				c1.3-1.9,2.4-4,3.1-6.3c0.7-2.3,1.1-4.7,1.1-7.2V62.2c-2.2-4.9-7.8-17.1-10.5-23c-0.6-1.3-2.5-1.3-3.1,0
				c-2.5,5.6-7.5,16.7-10.5,23v64.4C116,128.4,113.9,129.4,112.5,128.2z"/>
		</defs>
		<clipPath id="SVGID_00000023962772795860694170000006149513969557057459_">
			<use xlink:href="#SVGID_00000130642671198355876690000006523524426757353635_"  overflow="visible"/>
		</clipPath>
		<path clip-path="url(#SVGID_00000023962772795860694170000006149513969557057459_)" fill="#414042" d="M57.3,103.2l52.1,43.1
			c9,7.5,22.7,1.1,22.7-10.7V57.1l8,5.1l4.9,113.6l-71.3-28.7L57.3,103.2z"/>
	</g>
	<g>
		<defs>
			<path id="SVGID_00000054959633225482528110000004884679138248018841_" d="M112.5,128.2l-22.1-18.3c-5.1-4.2-12.7-3.9-17.1,1.2
				s-3.7,12.8,1.4,17.1l27.2,22.6l0,0c2.1,1.8,4.6,3.1,7.1,4s5.1,1.3,7.7,1.3c3,0,6-0.6,8.7-1.7c4.1-1.6,7.7-4.4,10.3-8.1
				c1.3-1.9,2.4-4,3.1-6.3c0.7-2.3,1.1-4.7,1.1-7.2V62.2c-2.2-4.9-7.8-17.1-10.5-23c-0.6-1.3-2.5-1.3-3.1,0
				c-2.5,5.6-7.5,16.7-10.5,23v64.4C116,128.4,113.9,129.4,112.5,128.2z"/>
		</defs>
		<clipPath id="SVGID_00000181798681491327014090000006296310962149301385_">
			<use xlink:href="#SVGID_00000054959633225482528110000004884679138248018841_"  overflow="visible"/>
		</clipPath>
		<path clip-path="url(#SVGID_00000181798681491327014090000006296310962149301385_)" fill="#939598" d="M63.1,97.6l49.5,41
			c4.6,3.8,11.5,0.5,11.5-5.4V57.1l-8,5.1L63.1,97.6z"/>
	</g>
</g>
<path fill="#6D6E71" d="M63.2,63.6l22.1,18.3c5.1,4.2,12.7,3.9,17.1-1.2s3.7-12.8-1.4-17.1L73.7,41.1l0,0c-2.1-1.8-4.6-3.1-7.1-4
	s-5.1-1.3-7.7-1.3c-3,0-6,0.6-8.7,1.7c-4.1,1.6-7.7,4.4-10.3,8.1c-1.3,1.9-2.4,4-3.1,6.3c-0.7,2.3-1.1,4.7-1.1,7.2v70.6
	c2.2,4.9,7.8,17.1,10.5,23c0.6,1.3,2.5,1.3,3.1,0c2.5-5.6,7.5-16.7,10.5-23V65.3C59.6,63.4,61.7,62.4,63.2,63.6z"/>
<g>
	<g>
		<defs>
			<path id="SVGID_00000038402734357972497170000013326956096061965743_" d="M63.2,63.6l22.1,18.3c5.1,4.2,12.7,3.9,17.1-1.2
				s3.7-12.8-1.4-17.1L73.7,41.1l0,0c-2.1-1.8-4.6-3.1-7.1-4s-5.1-1.3-7.7-1.3c-3,0-6,0.6-8.7,1.7c-4.1,1.6-7.7,4.4-10.3,8.1
				c-1.3,1.9-2.4,4-3.1,6.3c-0.7,2.3-1.1,4.7-1.1,7.2v70.6c2.2,4.9,7.8,17.1,10.5,23c0.6,1.3,2.5,1.3,3.1,0
				c2.5-5.6,7.5-16.7,10.5-23V65.3C59.6,63.4,61.7,62.4,63.2,63.6z"/>
		</defs>
		<clipPath id="SVGID_00000170970760879097220290000018200456965992400797_">
			<use xlink:href="#SVGID_00000038402734357972497170000013326956096061965743_"  overflow="visible"/>
		</clipPath>

			<circle clip-path="url(#SVGID_00000170970760879097220290000018200456965992400797_)" fill="#414042" cx="47.5" cy="153.6" r="9.9"/>
	</g>
	<g>
		<defs>
			<path id="SVGID_00000159449202131074913590000008881376165235385477_" d="M63.2,63.6l22.1,18.3c5.1,4.2,12.7,3.9,17.1-1.2
				s3.7-12.8-1.4-17.1L73.7,41.1l0,0c-2.1-1.8-4.6-3.1-7.1-4s-5.1-1.3-7.7-1.3c-3,0-6,0.6-8.7,1.7c-4.1,1.6-7.7,4.4-10.3,8.1
				c-1.3,1.9-2.4,4-3.1,6.3c-0.7,2.3-1.1,4.7-1.1,7.2v70.6c2.2,4.9,7.8,17.1,10.5,23c0.6,1.3,2.5,1.3,3.1,0
				c2.5-5.6,7.5-16.7,10.5-23V65.3C59.6,63.4,61.7,62.4,63.2,63.6z"/>
		</defs>
		<clipPath id="SVGID_00000042706320276939191900000018191567978773760648_">
			<use xlink:href="#SVGID_00000159449202131074913590000008881376165235385477_"  overflow="visible"/>
		</clipPath>
		<path clip-path="url(#SVGID_00000042706320276939191900000018191567978773760648_)" fill="#939598" d="M118.4,88.6L66.3,45.5
			c-9-7.5-22.7-1.1-22.7,10.7v78.6l-8-5.1L30.7,16L102,44.7L118.4,88.6z"/>
	</g>
	<g>
		<defs>
			<path id="SVGID_00000152251966302570809680000009111370222780086914_" d="M63.2,63.6l22.1,18.3c5.1,4.2,12.7,3.9,17.1-1.2
				s3.7-12.8-1.4-17.1L73.7,41.1l0,0c-2.1-1.8-4.6-3.1-7.1-4s-5.1-1.3-7.7-1.3c-3,0-6,0.6-8.7,1.7c-4.1,1.6-7.7,4.4-10.3,8.1
				c-1.3,1.9-2.4,4-3.1,6.3c-0.7,2.3-1.1,4.7-1.1,7.2v70.6c2.2,4.9,7.8,17.1,10.5,23c0.6,1.3,2.5,1.3,3.1,0
				c2.5-5.6,7.5-16.7,10.5-23V65.3C59.6,63.4,61.7,62.4,63.2,63.6z"/>
		</defs>
		<clipPath id="SVGID_00000035511031129732542180000007648648288213828225_">
			<use xlink:href="#SVGID_00000152251966302570809680000009111370222780086914_"  overflow="visible"/>
		</clipPath>
		<path clip-path="url(#SVGID_00000035511031129732542180000007648648288213828225_)" fill="#414042" d="M112.6,94.2l-49.5-41
			c-4.6-3.8-11.5-0.5-11.5,5.4v76.1l8-5.1L112.6,94.2z"/>
	</g>
</g>
</svg>
