<?xml version="1.0" encoding="utf-8"?>
<!-- Generator: Adobe Illustrator 25.4.1, SVG Export Plug-In . SVG Version: 6.00 Build 0)  -->
<svg version="1.1" id="Layer_1" xmlns="http://www.w3.org/2000/svg" xmlns:xlink="http://www.w3.org/1999/xlink" x="0px" y="0px"
	 viewBox="0 0 620.8 191.8" enable-background="new 0 0 620.8 191.8" xml:space="preserve">
<g>
	<path fill="#231F20" d="M182.8,116.1V76.7h7.5l19.1,28v-28h7.3v39.4h-7.3l-19.2-28.3v28.3H182.8z"/>
	<path fill="#231F20" d="M222.9,102.2c0-2.7,0.6-5.1,1.9-7.4c1.3-2.2,3-4,5.2-5.4c2.2-1.3,4.8-2,7.8-2s5.5,0.7,7.8,2
		c2.2,1.3,4,3.1,5.2,5.4c1.3,2.2,1.9,4.7,1.9,7.4c0,2.7-0.6,5.1-1.9,7.4c-1.3,2.2-3,4-5.2,5.4c-2.2,1.4-4.8,2-7.8,2s-5.5-0.7-7.8-2
		c-2.2-1.4-4-3.2-5.2-5.4C223.6,107.3,222.9,104.9,222.9,102.2z M237.8,111c1.8,0,3.2-0.5,4.4-1.4c1.2-0.9,2-2,2.6-3.4
		c0.6-1.4,0.9-2.7,0.9-4c0-1.3-0.3-2.7-0.9-4c-0.6-1.3-1.4-2.5-2.6-3.4c-1.2-0.9-2.6-1.4-4.4-1.4s-3.2,0.5-4.4,1.4
		c-1.2,0.9-2,2-2.6,3.4c-0.6,1.3-0.9,2.7-0.9,4c0,1.3,0.3,2.7,0.9,4c0.6,1.4,1.4,2.5,2.6,3.4C234.6,110.5,236,111,237.8,111z"/>
	<path fill="#231F20" d="M260.6,106.6V94h-4.7v-5.7h4.7v-9h7v9h7.4V94h-7.4v12.1c0,1.6,0.3,2.8,0.8,3.6c0.5,0.8,1.4,1.3,2.6,1.3
		c1.1,0,2-0.2,2.6-0.5c0.6-0.3,1.3-0.7,1.9-1.1l3,4.3c-1.4,1.1-2.7,1.9-4.1,2.4c-1.3,0.5-2.8,0.8-4.5,0.8c-3.4,0-5.8-0.9-7.1-2.8
		C261.3,112.2,260.6,109.7,260.6,106.6z"/>
	<path fill="#231F20" d="M303,107.8l3.8,4.2c-0.1,0.1-0.4,0.4-1,1s-1.3,1.1-2.3,1.7c-1,0.6-2.3,1.1-3.8,1.6
		c-1.6,0.5-3.4,0.7-5.6,0.7c-3,0-5.5-0.6-7.7-1.9s-3.9-3.1-5.1-5.3c-1.2-2.3-1.8-4.9-1.8-7.9c0-2.7,0.6-5.2,1.8-7.3
		c1.2-2.2,2.9-3.9,5-5.2c2.1-1.3,4.5-1.9,7.3-1.9c2.6,0,4.7,0.5,6.4,1.4c1.7,0.9,3.1,2.1,4.2,3.6c1.1,1.5,1.8,3.2,2.3,5.1
		s0.7,3.8,0.7,5.8v1h-20.7c0,1.3,0.4,2.5,1.2,3.5s1.7,1.8,2.9,2.4c1.2,0.6,2.4,0.9,3.6,0.9c1.8,0,3.3-0.2,4.5-0.6s2.1-0.9,2.8-1.4
		C302.2,108.5,302.7,108.1,303,107.8z M286.4,99.3H300c0-0.9-0.2-1.9-0.7-2.8c-0.5-0.9-1.2-1.7-2.2-2.3c-0.9-0.6-2.1-0.9-3.6-0.9
		c-1.5,0-2.8,0.3-3.9,0.9c-1,0.6-1.8,1.4-2.4,2.3C286.7,97.4,286.4,98.4,286.4,99.3z"/>
	<path fill="#231F20" d="M311.2,112.7l4.2-4.5c0.9,0.9,2,1.6,3.3,2.2c1.3,0.6,2.8,0.9,4.5,0.9c1.5,0,2.7-0.2,3.6-0.6
		c0.9-0.4,1.4-1.1,1.4-1.9c0-0.6-0.2-1-0.5-1.4c-0.3-0.4-1-0.8-2-1.2c-1-0.4-2.5-0.9-4.5-1.3c-1.2-0.3-2.5-0.8-3.9-1.4
		c-1.4-0.6-2.5-1.5-3.5-2.7c-1-1.2-1.4-2.6-1.4-4.4c0-1.8,0.6-3.4,1.7-4.7c1.1-1.3,2.6-2.3,4.3-3c1.8-0.7,3.6-1,5.4-1
		c2.4,0,4.5,0.3,6.3,0.8c1.7,0.5,3.3,1.3,4.6,2.3l-3.6,4.9c-0.7-0.6-1.7-1.1-3-1.5c-1.2-0.5-2.7-0.7-4.3-0.7c-1.6,0-2.8,0.2-3.4,0.7
		c-0.7,0.5-1,1.1-1,1.8c0,0.9,0.5,1.5,1.6,2c1.1,0.5,2.8,1,5,1.6c2.8,0.6,5,1.6,6.7,2.9c1.7,1.3,2.5,3.3,2.5,6
		c0,1.8-0.5,3.3-1.6,4.6c-1.1,1.3-2.5,2.3-4.3,3c-1.8,0.7-3.8,1.1-5.9,1.1c-2.6,0-4.9-0.4-7-1.1
		C314.1,115.2,312.4,114.1,311.2,112.7z"/>
	<path fill="#231F20" d="M362.7,116.1V83.2h-13.3v-6.6h34.1v6.6h-13.3v32.8H362.7z"/>
	<path fill="#231F20" d="M378.7,102.2c0-2.7,0.6-5.1,1.9-7.4c1.3-2.2,3-4,5.2-5.4c2.2-1.3,4.8-2,7.8-2s5.5,0.7,7.8,2
		c2.2,1.3,4,3.1,5.2,5.4c1.3,2.2,1.9,4.7,1.9,7.4c0,2.7-0.6,5.1-1.9,7.4c-1.3,2.2-3,4-5.2,5.4c-2.2,1.4-4.8,2-7.8,2s-5.5-0.7-7.8-2
		c-2.2-1.4-4-3.2-5.2-5.4C379.3,107.3,378.7,104.9,378.7,102.2z M393.6,111c1.8,0,3.2-0.5,4.4-1.4c1.2-0.9,2-2,2.6-3.4
		c0.6-1.4,0.9-2.7,0.9-4c0-1.3-0.3-2.7-0.9-4c-0.6-1.3-1.4-2.5-2.6-3.4c-1.2-0.9-2.6-1.4-4.4-1.4s-3.2,0.5-4.4,1.4
		c-1.2,0.9-2,2-2.6,3.4c-0.6,1.3-0.9,2.7-0.9,4c0,1.3,0.3,2.7,0.9,4c0.6,1.4,1.4,2.5,2.6,3.4C390.4,110.5,391.8,111,393.6,111z"/>
	<path fill="#231F20" d="M415.4,125.7l3.1-5.1c2.1,1.4,4.8,2.1,8.1,2.1c1.8,0,3.3-0.6,4.5-1.7c1.2-1.1,1.8-2.6,1.8-4.6v-3
		c-0.9,0.7-2,1.4-3.1,1.9c-1.1,0.5-2.6,0.8-4.5,0.8c-2.6,0-4.9-0.6-6.8-1.7c-1.9-1.2-3.4-2.8-4.4-4.8c-1-2-1.5-4.3-1.5-6.9
		c0-2.8,0.6-5.3,1.9-7.5c1.3-2.2,3.1-4,5.4-5.3c2.3-1.3,5.1-2,8.3-2c2.4,0,4.6,0.2,6.7,0.6c2,0.4,3.7,0.8,4.9,1.2v26.9
		c0,2.6-0.6,4.7-1.7,6.6c-1.1,1.8-2.7,3.2-4.7,4.1c-2,0.9-4.3,1.4-6.8,1.4c-2.9,0-5.2-0.3-6.8-0.8
		C418.2,127.3,416.7,126.6,415.4,125.7z M433,104.3v-9.9c-0.6-0.2-1.1-0.3-1.7-0.4c-0.6-0.1-1.5-0.1-2.8-0.1c-1.9,0-3.5,0.4-4.8,1.2
		c-1.3,0.8-2.3,1.9-2.9,3.2c-0.7,1.3-1,2.7-1,4.2c0,2.1,0.5,3.9,1.6,5.4c1.1,1.5,2.8,2.2,5.1,2.2C430.8,110,433,108.1,433,104.3z"/>
	<path fill="#231F20" d="M469,107.8l3.8,4.2c-0.1,0.1-0.4,0.4-1,1s-1.3,1.1-2.3,1.7c-1,0.6-2.3,1.1-3.8,1.6
		c-1.6,0.5-3.4,0.7-5.6,0.7c-3,0-5.5-0.6-7.7-1.9s-3.9-3.1-5.1-5.3c-1.2-2.3-1.8-4.9-1.8-7.9c0-2.7,0.6-5.2,1.8-7.3
		c1.2-2.2,2.9-3.9,5-5.2c2.1-1.3,4.5-1.9,7.3-1.9c2.6,0,4.7,0.5,6.4,1.4c1.7,0.9,3.1,2.1,4.2,3.6c1.1,1.5,1.8,3.2,2.3,5.1
		s0.7,3.8,0.7,5.8v1h-20.7c0,1.3,0.4,2.5,1.2,3.5s1.7,1.8,2.9,2.4c1.2,0.6,2.4,0.9,3.6,0.9c1.8,0,3.3-0.2,4.5-0.6s2.1-0.9,2.8-1.4
		C468.2,108.5,468.7,108.1,469,107.8z M452.4,99.3H466c0-0.9-0.2-1.9-0.7-2.8c-0.5-0.9-1.2-1.7-2.2-2.3c-0.9-0.6-2.1-0.9-3.6-0.9
		c-1.5,0-2.8,0.3-3.9,0.9c-1,0.6-1.8,1.4-2.4,2.3C452.7,97.4,452.4,98.4,452.4,99.3z"/>
	<path fill="#231F20" d="M480.9,106.6V94h-4.7v-5.7h4.7v-9h7v9h7.4V94h-7.4v12.1c0,1.6,0.3,2.8,0.8,3.6c0.5,0.8,1.4,1.3,2.6,1.3
		c1.1,0,2-0.2,2.6-0.5c0.6-0.3,1.3-0.7,1.9-1.1l3,4.3c-1.4,1.1-2.7,1.9-4.1,2.4c-1.3,0.5-2.8,0.8-4.5,0.8c-3.4,0-5.8-0.9-7.1-2.8
		C481.6,112.2,480.9,109.7,480.9,106.6z"/>
	<path fill="#231F20" d="M502.3,116.1V76.7h6.8v14.5c0.7-0.8,1.8-1.6,3.1-2.3c1.4-0.7,3.1-1.1,5.2-1.1c3.4,0,6.1,1.1,7.9,3.2
		c1.8,2.1,2.7,4.9,2.7,8.3v16.8h-7V99.3c0-1.7-0.5-3.1-1.4-4.1c-1-1-2.2-1.5-3.7-1.5c-1.9,0-3.5,0.7-4.8,2.1
		c-1.3,1.4-1.9,3.1-1.9,5.2v15H502.3z"/>
	<path fill="#231F20" d="M557.1,107.8l3.8,4.2c-0.1,0.1-0.4,0.4-1,1s-1.3,1.1-2.3,1.7c-1,0.6-2.3,1.1-3.8,1.6s-3.4,0.7-5.6,0.7
		c-3,0-5.5-0.6-7.7-1.9c-2.2-1.3-3.9-3.1-5.1-5.3s-1.8-4.9-1.8-7.9c0-2.7,0.6-5.2,1.8-7.3c1.2-2.2,2.9-3.9,5-5.2
		c2.1-1.3,4.5-1.9,7.3-1.9c2.6,0,4.7,0.5,6.4,1.4c1.7,0.9,3.1,2.1,4.2,3.6c1.1,1.5,1.8,3.2,2.3,5.1c0.5,1.9,0.7,3.8,0.7,5.8v1h-20.7
		c0,1.3,0.4,2.5,1.2,3.5s1.7,1.8,2.9,2.4c1.2,0.6,2.4,0.9,3.6,0.9c1.8,0,3.3-0.2,4.5-0.6s2.1-0.9,2.8-1.4
		C556.2,108.5,556.7,108.1,557.1,107.8z M540.5,99.3H554c0-0.9-0.2-1.9-0.7-2.8c-0.5-0.9-1.2-1.7-2.2-2.3c-0.9-0.6-2.1-0.9-3.6-0.9
		c-1.5,0-2.8,0.3-3.9,0.9c-1,0.6-1.8,1.4-2.4,2.3C540.7,97.4,540.5,98.4,540.5,99.3z"/>
	<path fill="#231F20" d="M566.6,116.1V88.4h6.7l0.2,3.5c0.4-0.6,1-1.1,1.7-1.7c0.7-0.6,1.6-1.1,2.7-1.6c1.1-0.5,2.4-0.7,3.9-0.7
		c0.7,0,1.3,0,1.8,0.1c0.5,0.1,1.1,0.2,1.6,0.4l-1.4,6.6c-0.9-0.4-2-0.5-3.2-0.5c-1.9,0-3.6,0.6-5,1.8c-1.4,1.2-2.1,2.9-2.1,4.9
		v14.9H566.6z"/>
</g>
<g>
	<defs>
		<path id="SVGID_1_" d="M112.5,128.2l-22.1-18.3c-5.1-4.2-12.7-3.9-17.1,1.2c-4.4,5.1-3.7,12.8,1.4,17.1l27.2,22.6l0,0
			c2.1,1.8,4.6,3.1,7.1,4c2.5,0.9,5.1,1.3,7.7,1.3c3,0,6-0.6,8.7-1.7c4.1-1.6,7.7-4.4,10.3-8.1c1.3-1.9,2.4-4,3.1-6.3
			c0.7-2.3,1.1-4.7,1.1-7.2V62.2c-2.2-4.9-7.8-17.1-10.5-23c-0.6-1.3-2.5-1.3-3.1,0c-2.5,5.6-7.5,16.7-10.5,23l0,64.4
			C116,128.4,113.9,129.4,112.5,128.2z"/>
	</defs>
	<clipPath id="SVGID_00000033347928312333896370000002951857948342806929_">
		<use xlink:href="#SVGID_1_"  overflow="visible"/>
	</clipPath>
	
		<rect x="59.1" y="20.1" clip-path="url(#SVGID_00000033347928312333896370000002951857948342806929_)" fill="none" width="116.6" height="152.6"/>
	
		<circle clip-path="url(#SVGID_00000033347928312333896370000002951857948342806929_)" fill="#231F20" cx="128.2" cy="38.2" r="9.9"/>
	
		<path clip-path="url(#SVGID_00000033347928312333896370000002951857948342806929_)" fill="none" stroke="#231F20" stroke-linecap="round" stroke-linejoin="round" stroke-miterlimit="10" d="
		M57.3,103.2l52.1,43.1c9,7.5,22.7,1.1,22.7-10.7V57.1l8,5.1l4.9,113.6l-71.3-28.7L57.3,103.2z"/>
	
		<path clip-path="url(#SVGID_00000033347928312333896370000002951857948342806929_)" fill="none" stroke="#231F20" stroke-linejoin="round" stroke-miterlimit="10" d="
		M63.1,97.6l49.5,41c4.6,3.8,11.5,0.5,11.5-5.4l0-76.1l-8,5.1L63.1,97.6z"/>
</g>
<path fill="none" stroke="#231F20" stroke-miterlimit="10" d="M112.5,128.2l-22.1-18.3c-5.1-4.2-12.7-3.9-17.1,1.2
	c-4.4,5.1-3.7,12.8,1.4,17.1l27.2,22.6l0,0c2.1,1.8,4.6,3.1,7.1,4c2.5,0.9,5.1,1.3,7.7,1.3c3,0,6-0.6,8.7-1.7
	c4.1-1.6,7.7-4.4,10.3-8.1c1.3-1.9,2.4-4,3.1-6.3c0.7-2.3,1.1-4.7,1.1-7.2V62.2c-2.2-4.9-7.8-17.1-10.5-23c-0.6-1.3-2.5-1.3-3.1,0
	c-2.5,5.6-7.5,16.7-10.5,23l0,64.4C116,128.4,113.9,129.4,112.5,128.2z"/>
<g>
	<defs>
		<path id="SVGID_00000163793724464910900770000005607773213644854699_" d="M63.2,63.6l22.1,18.3c5.1,4.2,12.7,3.9,17.1-1.2
			c4.4-5.1,3.7-12.8-1.4-17.1L73.7,41.1l0,0c-2.1-1.8-4.6-3.1-7.1-4c-2.5-0.9-5.1-1.3-7.7-1.3c-3,0-6,0.6-8.7,1.7
			c-4.1,1.6-7.7,4.4-10.3,8.1c-1.3,1.9-2.4,4-3.1,6.3c-0.7,2.3-1.1,4.7-1.1,7.2v70.6c2.2,4.9,7.8,17.1,10.5,23
			c0.6,1.3,2.5,1.3,3.1,0c2.5-5.6,7.5-16.7,10.5-23l0-64.4C59.6,63.4,61.7,62.4,63.2,63.6z"/>
	</defs>
	<clipPath id="SVGID_00000120543136524805345590000014773364147831384746_">
		<use xlink:href="#SVGID_00000163793724464910900770000005607773213644854699_"  overflow="visible"/>
	</clipPath>
	
		<rect y="19.1" transform="matrix(-1 -1.224647e-16 1.224647e-16 -1 116.6035 190.7159)" clip-path="url(#SVGID_00000120543136524805345590000014773364147831384746_)" fill="none" width="116.6" height="152.6"/>
	
		<circle clip-path="url(#SVGID_00000120543136524805345590000014773364147831384746_)" fill="#231F20" cx="47.5" cy="153.6" r="9.9"/>
	
		<path clip-path="url(#SVGID_00000120543136524805345590000014773364147831384746_)" fill="none" stroke="#231F20" stroke-linejoin="round" stroke-miterlimit="10" d="
		M118.4,88.6L66.3,45.5c-9-7.5-22.7-1.1-22.7,10.7v78.6l-8-5.1L30.7,16L102,44.7L118.4,88.6z"/>
	
		<path clip-path="url(#SVGID_00000120543136524805345590000014773364147831384746_)" fill="none" stroke="#231F20" stroke-linejoin="round" stroke-miterlimit="10" d="
		M112.6,94.2l-49.5-41c-4.6-3.8-11.5-0.5-11.5,5.4l0,76.1l8-5.1L112.6,94.2z"/>
</g>
<path fill="none" stroke="#231F20" stroke-miterlimit="10" d="M63.2,63.6l22.1,18.3c5.1,4.2,12.7,3.9,17.1-1.2
	c4.4-5.1,3.7-12.8-1.4-17.1L73.7,41.1l0,0c-2.1-1.8-4.6-3.1-7.1-4c-2.5-0.9-5.1-1.3-7.7-1.3c-3,0-6,0.6-8.7,1.7
	c-4.1,1.6-7.7,4.4-10.3,8.1c-1.3,1.9-2.4,4-3.1,6.3c-0.7,2.3-1.1,4.7-1.1,7.2v70.6c2.2,4.9,7.8,17.1,10.5,23c0.6,1.3,2.5,1.3,3.1,0
	c2.5-5.6,7.5-16.7,10.5-23l0-64.4C59.6,63.4,61.7,62.4,63.2,63.6z"/>
</svg>
